<?xml version="1.0" standalone="no"?>
<!DOCTYPE svg PUBLIC "-//W3C//DTD SVG 1.0//EN" "http://www.w3.org/TR/2001/REC-SVG-20010904/DTD/svg10.dtd">
<svg xmlns="http://www.w3.org/2000/svg" xmlns:xlink="http://www.w3.org/1999/xlink" id="body_1" width="236" height="50">

<g transform="matrix(0.5 0 0 0.5 0.25 -0)">
	<g>
        <path d="M283.05 29.51L283.17 29.55L283.55 29.86L283.76 30.05L284.31 30.64L284.89 31.29L286.45 33.28L287.27 34.37L289.16 37.04L292.15 41.54L293.16 43.11L295.05 45.99L295.96 47.36L297.52 49.63L297.88 50.15L298.51 51.04L298.81 51.45L299.3 52.1L299.52 52.39L299.84 52.77L300.12 53L300.16 53L300.34 52.77L300.45 52.62L300.74 52.12L301.06 51.56L301.98 49.73L302.48 48.72L303.66 46.19L305.6 41.87L306.3 40.26L307.53 37.57L308.13 36.31L309.18 34.27L309.69 33.33L310.64 31.89L311.1 31.23L312.01 30.33L312.47 29.94L313.4 29.51L313.88 29.35L314.9 29.35L315.44 29.39L316.63 29.75L318.67 30.63L319.43 31L320.56 31.68L321.07 32.02L321.77 32.73L322.08 33.09L322.44 33.94L322.71 35.5L322.73 35.75L322.56 36.66L322.44 37.18L321.99 38.64L321.73 39.43L321 41.43L320.61 42.5L319.6 45.05L319.05 46.4L317.76 49.51L317.08 51.14L315.5 54.82L314.67 56.73L312.8 60.98L309.67 68L296.42 97.5L292.91 97.8L291.7 97.9L289.59 97.51L288.57 97.21L286.7 95.98L285.96 95.39L284.79 94.03L284.55 93.7L284.21 93.08L284 92.32L284 92.21L284.09 91.79L284.16 91.55L284.36 90.89L284.6 90.17L285.35 88.13L285.77 87.03L286.82 84.43L288.61 80.2L293.21 69.63L291.42 66.56L291.3 66.35L290.89 65.69L290.67 65.32L290.07 64.38L289.43 63.38L287.72 60.71L286.8 59.29L284.69 56.05L281.32 50.93L280.17 49.2L278.09 45.89L277.09 44.28L275.44 41.46L275.07 40.8L274.43 39.62L274.13 39.06L273.66 38.12L273.45 37.68L273.17 37.01L273 36.35L273 35.9L273.28 34.97L273.47 34.51L274.06 33.6L274.72 32.7L276.67 31.15L277.69 30.45L279.95 29.59L280.5 29.44L281.57 29.33L283.05 29.51zM42.32 10.38L44.52 10.62L48.59 11.57L50.54 12.13L53.97 13.7L54.78 14.13L56.25 15.09L58.18 16.68L59.06 17.51L60.16 18.98L60.6 19.69L60.85 21.08L60.87 21.78L60.26 23.29L58.41 25.92L57.64 26.83L56.2 28.01L55.47 28.5L53.89 28.84L53.05 28.9L51.02 28.43L50.47 28.26L49.24 27.78L47.16 26.83L45.98 26.26L43.56 25.46L42.34 25.11L39.86 24.72L38.63 24.58L36.18 24.61L34.96 24.68L32.58 25.1L31.41 25.37L29.18 26.18L28.08 26.63L26.05 27.81L25.07 28.44L23.3 29.98L21.02 32.67L20.59 33.3L19.86 34.76L19.52 35.51L18.98 37.15L18.48 38.83L18.07 42.5L17.96 44.34L18.35 47.94L18.49 48.81L18.94 50.45L19.85 52.71L20.39 53.77L21.63 55.66L22.27 56.57L23.71 58.17L24.46 58.93L26.09 60.23L26.93 60.83L28.74 61.82L29.67 62.27L31.65 62.94L32.66 63.24L34.8 63.59L35.89 63.72L38.17 63.75L41.76 63.41L47.5 62.5L48.1 50L40.27 50L38.59 49.95L37.8 49.92L36.49 49.78L35.87 49.7L34.87 49.45L34.4 49.3L33.68 48.91L33.34 48.7L32.85 48.14L32.63 47.84L32.34 47.09L32.21 46.69L32.08 45.72L32 44L32 43.3L32.07 42.13L32.12 41.58L32.37 40.69L32.53 40.28L33.05 39.63L33.36 39.33L34.25 38.89L34.75 38.69L36.12 38.42L36.87 38.3L38.79 38.15L39.83 38.09L42.42 38.03L47.14 38L49.17 38L52.49 38.02L54.03 38.04L56.47 38.2L57.6 38.31L59.3 38.76L60.07 39.04L61.16 39.91L61.65 40.41L62.26 41.85L62.53 42.65L62.81 44.78L62.91 45.95L62.98 48.92L63 54.47L63 55.72L62.98 57.89L62.97 58.92L62.92 60.7L62.89 61.54L62.81 62.98L62.77 63.66L62.64 64.82L62.5 65.92L62.07 67.55L61.11 69.59L60.53 70.54L58.6 72.32L57.53 73.17L54.73 74.7L53.24 75.42L49.73 76.61L43.84 77.96L42.95 78.1L41.46 78.33L40.75 78.44L39.55 78.61L38.41 78.75L36.61 78.82L35.73 78.82L33.91 78.61L33.42 78.54L32.31 78.34L31.73 78.23L30.36 77.96L28.67 77.63L25.5 76.61L23.95 76.04L21.08 74.6L19.67 73.83L17.1 72.01L15.85 71.06L13.58 68.91L12.49 67.8L10.55 65.38L9.62 64.13L8.02 61.47L7.27 60.12L6.02 57.27L5.44 55.83L4.55 52.85L4.16 51.35L3.65 48.28L3.44 46.74L3.32 43.62L3.31 42.07L3.59 38.96L3.79 37.42L4.48 34.37L4.88 32.85L6.01 29.91L6.62 28.45L8.19 25.66L9.02 24.28L11.04 21.68L14.58 18.06L16.04 16.79L19.02 14.75L20.55 13.81L23.81 12.41L25.49 11.78L29.21 10.93L35.5 10.22L37.84 10.09zM176.63 30.28L177.5 30.45L178.91 31.02L179.56 31.34L180.44 32.14L181 33.54L181 34.03L181.16 34.61L181.27 34.84L181.77 34.88L182.08 34.83L183.07 34.29L185.25 32.82L186.37 32.02L189.14 30.95L190.58 30.51L193.72 30.15L195.3 30.07L198.44 30.45L202.74 31.87L203.89 32.45L205.86 33.84L206.79 34.58L208.38 36.35L209.14 37.29L210.43 39.52L212.11 43.5L212.22 43.82L212.42 44.68L212.51 45.14L212.69 46.28L212.86 47.47L213.12 50.47L213.24 52.05L213.4 55.56L213.47 57.35L213.53 61.02L213.54 62.84L213.49 66.32L213.45 68L213.29 70.94L213.19 72.31L212.92 74.35L212.84 74.79L212.67 75.44L212.37 76.03L212.13 76.27L211.45 76.67L211.08 76.86L210.18 77.16L209.25 77.44L207.06 77.68L205.96 77.75L203.87 77.53L201.5 76.66L201.06 76.33L200.42 75.44L200.28 75.18L200.04 74.49L199.93 74.12L199.75 73.16L199.66 72.64L199.52 71.32L199.45 70.61L199.33 68.87L199.27 67.93L199.16 65.67L199 61.62L198.93 59.64L198.77 56.34L198.68 54.79L198.45 52.27L198.32 51.1L197.97 49.25L197.78 48.4L197.26 47.13L196.97 46.55L196.23 45.75L195.82 45.39L194.81 44.95L194.26 44.77L192.92 44.59L190.49 44.5L189.68 44.5L188.3 44.62L187.65 44.7L186.55 45L186.02 45.18L185.09 45.7L183.81 46.75L183.29 47.27L182.57 48.34L182.42 48.64L182.16 49.38L182.04 49.77L181.85 50.76L181.76 51.3L181.61 52.63L181.55 53.35L181.44 55.13L181.39 56.09L181.29 58.4L181.16 62.57L181.11 64.23L181.03 66.98L180.98 68.26L180.89 70.32L180.84 71.28L180.72 72.77L180.66 73.45L180.49 74.47L180.4 74.93L180.17 75.59L180.04 75.89L179.72 76.29L178.32 77.07L177.34 77.44L175.52 77.83L174.63 77.97L173 77.89L172.21 77.8L170.8 77.26L170.12 76.94L168.94 75.94L168.45 75.45L167.8 74.34L167.66 73.99L167.45 73.08L167.35 72.57L167.22 71.21L167.17 70.46L167.1 68.49L167.08 67.42L167.07 64.69L167.07 63.22L167.11 59.57L167.12 58.6L167.14 56.45L167.19 52.91L167.22 51.46L167.25 48.85L167.27 47.58L167.32 45.3L167.34 44.2L167.39 42.23L167.41 41.28L167.48 39.6L167.55 37.99L167.76 35.53L167.89 34.42L168.25 32.82L168.46 32.11L169.02 31.19L169.33 30.79L170.15 30.36L170.6 30.19L171.72 30.06L173.82 30.02L174.82 30.01zM262.73 8.24L265.07 9.04L265.3 9.16L265.68 9.48L265.86 9.68L266.15 10.32L266.28 10.7L266.49 11.87L266.59 12.55L266.73 14.49L266.76 15.04L266.81 16.31L266.84 16.98L266.88 18.52L266.89 19.33L266.92 21.17L266.94 22.13L266.96 24.3L266.97 25.43L266.98 27.95L266.99 29.26L266.99 32.17L267 33.67L267 36.99L267 42.46L267 44.22L267 47.46L267 49.04L266.99 51.94L266.98 53.35L266.97 55.92L266.96 57.17L266.95 59.44L266.94 60.54L266.91 62.52L266.9 63.48L266.86 65.21L266.83 66.87L266.73 69.48L266.67 70.68L266.53 72.5L266.45 73.32L266.25 74.5L266.14 75.03L265.89 75.73L265.43 76.43L264.89 76.96L263.28 77.6L262.41 77.85L260.43 77.94L259.42 77.91L257.45 77.44L254.92 76.14L254.36 75.68L253.53 75.11L253.14 74.89L252.38 74.77L251.97 74.77L250.9 75.1L248.56 76.11L247.4 76.64L245.35 77.32L244.35 77.6L242.42 77.81L241.44 77.85L239.34 77.58L238.25 77.39L235.73 76.67L234.25 76.21L231.54 74.84L230.24 74.08L227.92 72.17L226.81 71.16L224.9 68.8L224 67.57L222.56 64.84L221.89 63.44L220.94 60.43L220.53 58.89L220.12 55.68L219.98 54.06L220.14 50.72L221.07 45.68L221.26 45.02L221.9 43.6L222.26 42.88L223.22 41.38L224.24 39.88L226.91 36.95L228.3 35.54L231.29 33.24L232.03 32.73L233.47 31.92L235.5 31.11L236.86 30.73L239.25 30.29L240.41 30.12L242.52 30.08L243.56 30.11L245.57 30.48L248.65 31.5L249.64 31.91L251.27 32.56L251.63 32.7L252.14 32.88L252.53 33L252.55 33L252.6 32.77L252.62 32.63L252.67 32.13L252.72 31.56L252.84 29.74L252.89 28.74L253.01 26.22L253.16 21.92L253.2 20.72L253.27 18.68L253.31 17.71L253.41 16.09L253.45 15.33L253.57 14.07L253.63 13.49L253.78 12.53L253.94 11.65L254.42 10.54L255.44 9.42L256.01 9L257.52 8.45L258.32 8.22L260.08 8.05L260.97 8.02zM98.45 29.64L101.16 30.09L104.5 31.41L105.11 31.81L105.94 32.49L106.29 32.83L106.69 33.58L106.84 33.98L106.9 35.04L106.69 37.25L106.54 38.36L105.7 40.71L105.47 41.26L104.93 42.24L104.09 43.36L103.62 43.82L102.86 44.43L102.48 44.68L101.67 44.9L101.24 44.96L100.12 44.83L97.79 44.29L96.96 44.07L95.58 43.8L94.93 43.7L93.77 43.67L93.21 43.68L92.12 43.89L90.37 44.49L87.19 45.82L86.85 60.36L86.79 62.62L86.62 66.52L86.53 68.35L86.29 71.32L86.23 71.99L86.09 73.14L86.02 73.68L85.87 74.56L85.79 74.95L85.63 75.53L85.37 76.03L85.22 76.19L84.62 76.51L84.28 76.67L83.4 76.98L80.24 77.7L79.44 77.8L78.17 77.87L77.58 77.87L76.61 77.7L76.15 77.58L75.34 77.14L74.93 76.88L74.12 76.12L73.61 75.61L72.94 74.49L72.79 74.15L72.56 73.26L72.46 72.77L72.3 71.47L72.23 70.75L72.14 68.88L72.1 67.87L72.05 65.29L72.03 63.91L72.01 60.48L72 54.22L72 52.8L72.01 50.2L72.01 48.94L72.03 46.65L72.04 45.55L72.08 43.54L72.1 42.58L72.17 40.85L72.24 39.18L72.47 36.57L72.61 35.37L73.01 33.58L73.24 32.78L73.85 31.67L74.19 31.18L75.06 30.59L75.53 30.34L76.7 30.11L78.83 30L79.86 30L82.11 30.45L82.64 30.59L83.61 30.94L84.75 31.54L85.25 31.89L86.01 32.32L86.37 32.49L87.02 32.56L87.35 32.54L88.11 32.24L89.59 31.35L90.03 31.06L91.1 30.59L91.66 30.38L92.91 30.06L94.19 29.77L97.03 29.64zM155.49 30.17L155.99 30.27L156.83 30.57L157.8 31.2L157.89 31.29L158.05 31.91L158.13 32.29L158.28 33.43L158.35 34.06L158.47 35.65L158.53 36.5L158.64 38.46L158.74 40.5L158.89 45.36L158.95 47.88L159.01 53.22L159.03 55.9L159 61.12L158.98 63.65L158.86 68.13L158.82 69.17L158.73 71.02L158.68 71.89L158.57 73.34L158.51 74.01L158.37 74.98L158.13 75.83L157.94 76.12L157.33 76.61L157 76.84L156.15 77.2L155.25 77.52L153.05 77.75L151.93 77.79L149.72 77.44L147.04 76.24L146.45 75.75L145.59 75.15L145.18 74.91L144.4 74.78L143.99 74.77L142.91 75.1L140.56 76.11L139.43 76.63L137.24 77.31L136.16 77.59L134.02 77.81L132.95 77.87L130.8 77.64L129.72 77.46L127.5 76.78L126.54 76.44L124.69 75.55L123.79 75.08L122.07 73.95L121.24 73.35L119.67 72L118.91 71.3L117.51 69.75L116.84 68.95L115.64 67.23L115.06 66.35L114.07 64.48L113.6 63.52L112.84 61.53L111.98 58.43L111.76 57.34L111.55 55.17L111.49 54.1L111.59 51.98L111.68 50.93L112.06 48.87L112.29 47.85L112.93 45.89L113.63 43.95L115.71 40.43L116.84 38.74L119.63 35.87L121.1 34.53L124.41 32.47L125.26 32.02L127.03 31.29L127.92 30.96L129.75 30.51L130.67 30.32L132.53 30.15L133.47 30.1L135.35 30.25L136.29 30.36L138.16 30.84L140.92 31.96L141.88 32.45L143.16 33.05L143.73 33.3L144.5 33.42L144.85 33.42L145.45 33.05L146.54 31.96L146.79 31.68L147.52 31.2L147.92 30.98L148.88 30.62L149.87 30.29L152.19 30L153.35 29.92zM240.54 44.99L239.74 45.25L238.34 46.02L237.68 46.44L236.57 47.46L236.06 48L235.27 49.23L234.92 49.87L234.46 51.24L234.27 51.94L234.15 53.39L234.14 54.12L234.38 55.61L234.55 56.34L235.17 57.79L236.53 59.86L237.05 60.47L238.12 61.47L238.66 61.93L239.78 62.62L240.34 62.93L241.49 63.32L242.06 63.47L243.23 63.55L243.81 63.56L244.99 63.33L245.58 63.18L246.76 62.65L247.35 62.34L248.52 61.51L249.1 61.05L250.25 59.91L251.09 59.01L252.14 57.09L252.56 56.11L252.87 54.13L252.93 53.14L252.58 51.23L252.33 50.3L251.4 48.61L250.88 47.81L249.48 46.47L248.72 45.86L246.93 45.01L246 44.67L243.91 44.45zM133.85 44.03L131.85 44.76L128.92 46.92L127.92 47.93L126.64 50.25L126.13 51.44L125.84 53.91L125.82 55.15L126.52 57.5L126.76 58.07L127.42 59.14L128.7 60.59L129.17 61.04L130.26 61.74L130.82 62.06L132.03 62.51L133.26 62.91L135.85 62.98L137.13 62.9L139.51 62.05L140.07 61.78L141.07 61.07L141.55 60.68L142.35 59.75L143.13 58.7L144 56.44L144.33 55.3L144.33 52.99L144.21 51.84L143.34 49.67L141.08 46.78L140.03 45.84L137.95 44.69L136.92 44.23L134.87 44.02z" stroke="none" fill="#466ACD" fill-rule="nonzero" />
        <path d="M379.73 77.96L378.23 77.71L375.31 76.88L373.88 76.41L371.13 75.18L369.78 74.52L367.22 72.92L365.98 72.07L363.66 70.13L362.53 69.12L360.49 66.88L359.5 65.72L357.76 63.21L356.93 61.92L355.54 59.17L353.87 54.8L353.35 53.08L352.64 49.67L352.34 47.98L352.09 44.66L352.01 43.01L352.2 39.8L352.35 38.21L352.98 35.13L353.34 33.61L354.4 30.69L354.98 29.25L356.47 26.52L357.26 25.18L359.16 22.65L362.48 19.12L363.41 18.27L365.16 16.8L366.02 16.09L367.7 14.9L369.38 13.77L372.82 12.26L373.7 11.93L375.59 11.43L376.55 11.21L378.64 10.89L379.72 10.75L382.08 10.59L386 10.5L387.26 10.5L389.51 10.55L390.59 10.59L392.54 10.73L394.42 10.9L397.54 11.55L399.03 11.95L401.71 13.15L405.75 15.71L406.72 16.42L408.01 18.02L408.55 18.84L408.97 20.62L409.07 21.52L408.61 23.43L406.93 26.37L406.3 27.17L404.96 28.19L404.26 28.61L402.62 28.87L401.73 28.91L399.55 28.42L398.96 28.25L397.63 27.78L395.41 26.86L394.08 26.27L391.39 25.46L390.05 25.11L387.4 24.78L386.08 24.68L383.52 24.81L382.26 24.93L379.85 25.51L378.67 25.85L376.47 26.86L375.4 27.42L373.47 28.83L372.55 29.59L370.95 31.4L368.98 34.54L368.54 35.45L367.91 37.06L367.63 37.86L367.3 39.45L367.16 40.27L367.07 42.11L367.18 45.43L367.24 46.46L367.49 48.35L367.63 49.26L368.05 50.94L368.51 52.57L369.99 55.31L370.84 56.6L373.18 58.79L373.83 59.31L375.3 60.29L377.79 61.66L378.9 62.21L380.7 62.98L381.56 63.31L383.12 63.69L383.9 63.83L385.58 63.89L388.61 63.7L390.13 63.54L392.93 62.95L393.56 62.79L394.58 62.45L395.57 61.94L395.79 61.76L396.15 61.13L396.32 60.78L396.58 59.89L396.81 58.94L396.97 56.66L397 55.51L396.72 53.38L396.62 52.9L396.34 52.08L395.8 51.2L395.64 51.04L394.89 50.73L394.46 50.59L393.31 50.35L389 50L387.46 50L384.69 49.65L384.08 49.54L383.11 49.27L382.2 48.8L382.01 48.61L381.69 48.01L381.55 47.68L381.33 46.86L381.13 46.01L381.04 44L381.04 42.99L381.33 41.14L381.42 40.71L381.69 39.99L382.2 39.2L382.31 39.09L382.78 38.89L383.06 38.8L383.83 38.63L384.67 38.46L387.06 38.22L388.34 38.12L391.33 37.99L392.88 37.95L396.13 37.93L397.76 37.94L400.92 38.04L402.45 38.1L405.15 38.3L406.42 38.42L408.31 38.73L408.72 38.82L409.32 39.01L409.85 39.32L409.95 39.44L410.14 39.96L410.23 40.26L410.39 41.09L410.55 42L410.78 44.55L410.88 45.93L411.02 49.15L411.07 50.81L411.1 54.33L411.1 56.09L411.02 59.54L410.97 61.22L410.8 64.23L410.69 65.65L410.41 67.85L410.34 68.33L410.16 69.08L409.87 69.83L409.62 70.24L408.86 71.06L408.44 71.47L407.38 72.3L406.26 73.12L403.34 74.66L401.8 75.4L398.34 76.63L392.97 77.94L392.08 78.08L390.38 78.33L389.55 78.45L388.11 78.64L387.43 78.73L386.4 78.83L385.5 78.87L385.36 78.86L384.74 78.77L384.37 78.71L383.39 78.56L382.35 78.4L379.73 77.96zM437.81 77.62L436.39 77.24L433.78 76.19L432.52 75.62L430.23 74.25L429.12 73.53L427.15 71.89L426.21 71.04L424.56 69.16L423.78 68.2L422.46 66.13L421.84 65.07L420.86 62.86L420.41 61.73L419.75 59.41L419.47 58.25L419.16 55.86L419.05 54.67L419.08 52.27L419.14 51.07L419.53 48.7L419.76 47.52L420.49 45.22L420.91 44.08L422 41.89L422.59 40.81L424.04 38.77L424.81 37.77L426.63 35.93L427.58 35.04L429.76 33.45L433.46 31.37L434.95 30.67L437.99 29.75L439.51 29.36L442.56 29.04L444.08 28.95L447.07 29.21L448.55 29.41L451.42 30.23L452.84 30.7L455.53 32.06L456.84 32.8L459.29 34.68L460.47 35.68L462.61 38.05L465.4 42.14L465.81 42.86L466.48 44.51L466.8 45.36L467.29 47.2L467.74 49.07L468.06 53.14L468.13 55.18L467.69 59.17L467.53 60.14L467.06 61.98L466.14 64.51L465.56 65.78L464.04 68.12L463.22 69.25L461.29 71.27L460.28 72.24L458.02 73.92L456.85 74.71L454.33 76L453.04 76.6L450.34 77.47L448.98 77.85L446.19 78.27L444.78 78.41L441.97 78.34L440.57 78.23zM450.6 60.6L451.2 60L452.16 58.71L452.6 58.06L453.23 56.7L453.5 56.01L453.81 54.62L453.92 53.93L453.91 52.54L453.86 51.86L453.53 50.53L453.33 49.87L452.68 48.63L452.32 48.03L451.36 46.92L449.57 45.45L448.52 44.76L446.32 44.05L445.22 43.79L443.02 43.84L441.94 43.96L439.9 44.66L438.91 45.09L437.16 46.33L436.34 47.01L435.03 48.66L434.44 49.53L433.71 51.48L433.44 52.48L433.44 54.61L434.43 57.87L434.89 58.75L435.95 60.23L436.5 60.92L437.72 62.03L438.35 62.54L439.7 63.27L440.38 63.59L441.82 63.93L442.55 64.05L444.03 64L444.77 63.93L446.27 63.48L447.01 63.2L448.48 62.35L449.2 61.87z" stroke="none" fill="#F0A614" fill-rule="nonzero" />
	</g>
</g>
</svg>
