<svg xmlns="http://www.w3.org/2000/svg" width="471" height="100" viewBox="0 0 471 100">
<g>
<path d="M 283.05,29.51 L 283.17,29.55 L 283.55,29.86 L 283.76,30.05 L 284.31,30.64 L 284.89,31.29 L 286.45,33.28 L 287.27,34.37 L 289.16,37.04 L 292.15,41.54 L 293.16,43.11 L 295.05,45.99 L 295.96,47.36 L 297.52,49.63 L 297.88,50.15 L 298.51,51.04 L 298.81,51.45 L 299.30,52.10 L 299.52,52.39 L 299.84,52.77 L 300.12,53.00 L 300.16,53.00 L 300.34,52.77 L 300.45,52.62 L 300.74,52.12 L 301.06,51.56 L 301.98,49.73 L 302.48,48.72 L 303.66,46.19 L 305.60,41.87 L 306.30,40.26 L 307.53,37.57 L 308.13,36.31 L 309.18,34.27 L 309.69,33.33 L 310.64,31.89 L 311.10,31.23 L 312.01,30.33 L 312.47,29.94 L 313.40,29.51 L 313.88,29.35 L 314.90,29.35 L 315.44,29.39 L 316.63,29.75 L 318.67,30.63 L 319.43,31.00 L 320.56,31.68 L 321.07,32.02 L 321.77,32.73 L 322.08,33.09 L 322.44,33.94 L 322.71,35.50 L 322.73,35.75 L 322.56,36.66 L 322.44,37.18 L 321.99,38.64 L 321.73,39.43 L 321.00,41.43 L 320.61,42.50 L 319.60,45.05 L 319.05,46.40 L 317.76,49.51 L 317.08,51.14 L 315.50,54.82 L 314.67,56.73 L 312.80,60.98 L 309.67,68.00 L 296.42,97.50 L 292.91,97.80 L 291.70,97.90 L 289.59,97.51 L 288.57,97.21 L 286.70,95.98 L 285.96,95.39 L 284.79,94.03 L 284.55,93.70 L 284.21,93.08 L 284.00,92.32 L 284.00,92.21 L 284.09,91.79 L 284.16,91.55 L 284.36,90.89 L 284.60,90.17 L 285.35,88.13 L 285.77,87.03 L 286.82,84.43 L 288.61,80.20 L 293.21,69.63 L 291.42,66.56 L 291.30,66.35 L 290.89,65.69 L 290.67,65.32 L 290.07,64.38 L 289.43,63.38 L 287.72,60.71 L 286.80,59.29 L 284.69,56.05 L 281.32,50.93 L 280.17,49.20 L 278.09,45.89 L 277.09,44.28 L 275.44,41.46 L 275.07,40.80 L 274.43,39.62 L 274.13,39.06 L 273.66,38.12 L 273.45,37.68 L 273.17,37.01 L 273.00,36.35 L 273.00,35.90 L 273.28,34.97 L 273.47,34.51 L 274.06,33.60 L 274.72,32.70 L 276.67,31.15 L 277.69,30.45 L 279.95,29.59 L 280.50,29.44 L 281.57,29.33 M 42.32,10.38 L 44.52,10.62 L 48.59,11.57 L 50.54,12.13 L 53.97,13.70 L 54.78,14.13 L 56.25,15.09 L 58.18,16.68 L 59.06,17.51 L 60.16,18.98 L 60.60,19.69 L 60.85,21.08 L 60.87,21.78 L 60.26,23.29 L 58.41,25.92 L 57.64,26.83 L 56.20,28.01 L 55.47,28.50 L 53.89,28.84 L 53.05,28.90 L 51.02,28.43 L 50.47,28.26 L 49.24,27.78 L 47.16,26.83 L 45.98,26.26 L 43.56,25.46 L 42.34,25.11 L 39.86,24.72 L 38.63,24.58 L 36.18,24.61 L 34.96,24.68 L 32.58,25.10 L 31.41,25.37 L 29.18,26.18 L 28.08,26.63 L 26.05,27.81 L 25.07,28.44 L 23.30,29.98 L 21.02,32.67 L 20.59,33.30 L 19.86,34.76 L 19.52,35.51 L 18.98,37.15 L 18.48,38.83 L 18.07,42.50 L 17.96,44.34 L 18.35,47.94 L 18.49,48.81 L 18.94,50.45 L 19.85,52.71 L 20.39,53.77 L 21.63,55.66 L 22.27,56.57 L 23.71,58.17 L 24.46,58.93 L 26.09,60.23 L 26.93,60.83 L 28.74,61.82 L 29.67,62.27 L 31.65,62.94 L 32.66,63.24 L 34.80,63.59 L 35.89,63.72 L 38.17,63.75 L 41.76,63.41 L 47.50,62.50 L 48.10,50.00 L 40.27,50.00 L 38.59,49.95 L 37.80,49.92 L 36.49,49.78 L 35.87,49.70 L 34.87,49.45 L 34.40,49.30 L 33.68,48.91 L 33.34,48.70 L 32.85,48.14 L 32.63,47.84 L 32.34,47.09 L 32.21,46.69 L 32.08,45.72 L 32.00,44.00 L 32.00,43.30 L 32.07,42.13 L 32.12,41.58 L 32.37,40.69 L 32.53,40.28 L 33.05,39.63 L 33.36,39.33 L 34.25,38.89 L 34.75,38.69 L 36.12,38.42 L 36.87,38.30 L 38.79,38.15 L 39.83,38.09 L 42.42,38.03 L 47.14,38.00 L 49.17,38.00 L 52.49,38.02 L 54.03,38.04 L 56.47,38.20 L 57.60,38.31 L 59.30,38.76 L 60.07,39.04 L 61.16,39.91 L 61.65,40.41 L 62.26,41.85 L 62.53,42.65 L 62.81,44.78 L 62.91,45.95 L 62.98,48.92 L 63.00,54.47 L 63.00,55.72 L 62.98,57.89 L 62.97,58.92 L 62.92,60.70 L 62.89,61.54 L 62.81,62.98 L 62.77,63.66 L 62.64,64.82 L 62.50,65.92 L 62.07,67.55 L 61.11,69.59 L 60.53,70.54 L 58.60,72.32 L 57.53,73.17 L 54.73,74.70 L 53.24,75.42 L 49.73,76.61 L 43.84,77.96 L 42.95,78.10 L 41.46,78.33 L 40.75,78.44 L 39.55,78.61 L 38.41,78.75 L 36.61,78.82 L 35.73,78.82 L 33.91,78.61 L 33.42,78.54 L 32.31,78.34 L 31.73,78.23 L 30.36,77.96 L 28.67,77.63 L 25.50,76.61 L 23.95,76.04 L 21.08,74.60 L 19.67,73.83 L 17.10,72.01 L 15.85,71.06 L 13.58,68.91 L 12.49,67.80 L 10.55,65.38 L 9.62,64.13 L 8.02,61.47 L 7.27,60.12 L 6.02,57.27 L 5.44,55.83 L 4.55,52.85 L 4.16,51.35 L 3.65,48.28 L 3.44,46.74 L 3.32,43.62 L 3.31,42.07 L 3.59,38.96 L 3.79,37.42 L 4.48,34.37 L 4.88,32.85 L 6.01,29.91 L 6.62,28.45 L 8.19,25.66 L 9.02,24.28 L 11.04,21.68 L 14.58,18.06 L 16.04,16.79 L 19.02,14.75 L 20.55,13.81 L 23.81,12.41 L 25.49,11.78 L 29.21,10.93 L 35.50,10.22 L 37.84,10.09 M 176.63,30.28 L 177.50,30.45 L 178.91,31.02 L 179.56,31.34 L 180.44,32.14 L 181.00,33.54 L 181.00,34.03 L 181.16,34.61 L 181.27,34.84 L 181.77,34.88 L 182.08,34.83 L 183.07,34.29 L 185.25,32.82 L 186.37,32.02 L 189.14,30.95 L 190.58,30.51 L 193.72,30.15 L 195.30,30.07 L 198.44,30.45 L 202.74,31.87 L 203.89,32.45 L 205.86,33.84 L 206.79,34.58 L 208.38,36.35 L 209.14,37.29 L 210.43,39.52 L 212.11,43.50 L 212.22,43.82 L 212.42,44.68 L 212.51,45.14 L 212.69,46.28 L 212.86,47.47 L 213.12,50.47 L 213.24,52.05 L 213.40,55.56 L 213.47,57.35 L 213.53,61.02 L 213.54,62.84 L 213.49,66.32 L 213.45,68.00 L 213.29,70.94 L 213.19,72.31 L 212.92,74.35 L 212.84,74.79 L 212.67,75.44 L 212.37,76.03 L 212.13,76.27 L 211.45,76.67 L 211.08,76.86 L 210.18,77.16 L 209.25,77.44 L 207.06,77.68 L 205.96,77.75 L 203.87,77.53 L 201.50,76.66 L 201.06,76.33 L 200.42,75.44 L 200.28,75.18 L 200.04,74.49 L 199.93,74.12 L 199.75,73.16 L 199.66,72.64 L 199.52,71.32 L 199.45,70.61 L 199.33,68.87 L 199.27,67.93 L 199.16,65.67 L 199.00,61.62 L 198.93,59.64 L 198.77,56.34 L 198.68,54.79 L 198.45,52.27 L 198.32,51.10 L 197.97,49.25 L 197.78,48.40 L 197.26,47.13 L 196.97,46.55 L 196.23,45.75 L 195.82,45.39 L 194.81,44.95 L 194.26,44.77 L 192.92,44.59 L 190.49,44.50 L 189.68,44.50 L 188.30,44.62 L 187.65,44.70 L 186.55,45.00 L 186.02,45.18 L 185.09,45.70 L 183.81,46.75 L 183.29,47.27 L 182.57,48.34 L 182.42,48.64 L 182.16,49.38 L 182.04,49.77 L 181.85,50.76 L 181.76,51.30 L 181.61,52.63 L 181.55,53.35 L 181.44,55.13 L 181.39,56.09 L 181.29,58.40 L 181.16,62.57 L 181.11,64.23 L 181.03,66.98 L 180.98,68.26 L 180.89,70.32 L 180.84,71.28 L 180.72,72.77 L 180.66,73.45 L 180.49,74.47 L 180.40,74.93 L 180.17,75.59 L 180.04,75.89 L 179.72,76.29 L 178.32,77.07 L 177.34,77.44 L 175.52,77.83 L 174.63,77.97 L 173.00,77.89 L 172.21,77.80 L 170.80,77.26 L 170.12,76.94 L 168.94,75.94 L 168.45,75.45 L 167.80,74.34 L 167.66,73.99 L 167.45,73.08 L 167.35,72.57 L 167.22,71.21 L 167.17,70.46 L 167.10,68.49 L 167.08,67.42 L 167.07,64.69 L 167.07,63.22 L 167.11,59.57 L 167.12,58.60 L 167.14,56.45 L 167.19,52.91 L 167.22,51.46 L 167.25,48.85 L 167.27,47.58 L 167.32,45.30 L 167.34,44.20 L 167.39,42.23 L 167.41,41.28 L 167.48,39.60 L 167.55,37.99 L 167.76,35.53 L 167.89,34.42 L 168.25,32.82 L 168.46,32.11 L 169.02,31.19 L 169.33,30.79 L 170.15,30.36 L 170.60,30.19 L 171.72,30.06 L 173.82,30.02 L 174.82,30.01 M 262.73,8.24 L 265.07,9.04 L 265.30,9.16 L 265.68,9.48 L 265.86,9.68 L 266.15,10.32 L 266.28,10.70 L 266.49,11.87 L 266.59,12.55 L 266.73,14.49 L 266.76,15.04 L 266.81,16.31 L 266.84,16.98 L 266.88,18.52 L 266.89,19.33 L 266.92,21.17 L 266.94,22.13 L 266.96,24.30 L 266.97,25.43 L 266.98,27.95 L 266.99,29.26 L 266.99,32.17 L 267.00,33.67 L 267.00,36.99 L 267.00,42.46 L 267.00,44.22 L 267.00,47.46 L 267.00,49.04 L 266.99,51.94 L 266.98,53.35 L 266.97,55.92 L 266.96,57.17 L 266.95,59.44 L 266.94,60.54 L 266.91,62.52 L 266.90,63.48 L 266.86,65.21 L 266.83,66.87 L 266.73,69.48 L 266.67,70.68 L 266.53,72.50 L 266.45,73.32 L 266.25,74.50 L 266.14,75.03 L 265.89,75.73 L 265.43,76.43 L 264.89,76.96 L 263.28,77.60 L 262.41,77.85 L 260.43,77.94 L 259.42,77.91 L 257.45,77.44 L 254.92,76.14 L 254.36,75.68 L 253.53,75.11 L 253.14,74.89 L 252.38,74.77 L 251.97,74.77 L 250.90,75.10 L 248.56,76.11 L 247.40,76.64 L 245.35,77.32 L 244.35,77.60 L 242.42,77.81 L 241.44,77.85 L 239.34,77.58 L 238.25,77.39 L 235.73,76.67 L 234.25,76.21 L 231.54,74.84 L 230.24,74.08 L 227.92,72.17 L 226.81,71.16 L 224.90,68.80 L 224.00,67.57 L 222.56,64.84 L 221.89,63.44 L 220.94,60.43 L 220.53,58.89 L 220.12,55.68 L 219.98,54.06 L 220.14,50.72 L 221.07,45.68 L 221.26,45.02 L 221.90,43.60 L 222.26,42.88 L 223.22,41.38 L 224.24,39.88 L 226.91,36.95 L 228.30,35.54 L 231.29,33.24 L 232.03,32.73 L 233.47,31.92 L 235.50,31.11 L 236.86,30.73 L 239.25,30.29 L 240.41,30.12 L 242.52,30.08 L 243.56,30.11 L 245.57,30.48 L 248.65,31.50 L 249.64,31.91 L 251.27,32.56 L 251.63,32.70 L 252.14,32.88 L 252.53,33.00 L 252.55,33.00 L 252.60,32.77 L 252.62,32.63 L 252.67,32.13 L 252.72,31.56 L 252.84,29.74 L 252.89,28.74 L 253.01,26.22 L 253.16,21.92 L 253.20,20.72 L 253.27,18.68 L 253.31,17.71 L 253.41,16.09 L 253.45,15.33 L 253.57,14.07 L 253.63,13.49 L 253.78,12.53 L 253.94,11.65 L 254.42,10.54 L 255.44,9.42 L 256.01,9.00 L 257.52,8.45 L 258.32,8.22 L 260.08,8.05 L 260.97,8.02 M 98.45,29.64 L 101.16,30.09 L 104.50,31.41 L 105.11,31.81 L 105.94,32.49 L 106.29,32.83 L 106.69,33.58 L 106.84,33.98 L 106.90,35.04 L 106.69,37.25 L 106.54,38.36 L 105.70,40.71 L 105.47,41.26 L 104.93,42.24 L 104.09,43.36 L 103.62,43.82 L 102.86,44.43 L 102.48,44.68 L 101.67,44.90 L 101.24,44.96 L 100.12,44.83 L 97.79,44.29 L 96.96,44.07 L 95.58,43.80 L 94.93,43.70 L 93.77,43.67 L 93.21,43.68 L 92.12,43.89 L 90.37,44.49 L 87.19,45.82 L 86.85,60.36 L 86.79,62.62 L 86.62,66.52 L 86.53,68.35 L 86.29,71.32 L 86.23,71.99 L 86.09,73.14 L 86.02,73.68 L 85.87,74.56 L 85.79,74.95 L 85.63,75.53 L 85.37,76.03 L 85.22,76.19 L 84.62,76.51 L 84.28,76.67 L 83.40,76.98 L 80.24,77.70 L 79.44,77.80 L 78.17,77.87 L 77.58,77.87 L 76.61,77.70 L 76.15,77.58 L 75.34,77.14 L 74.93,76.88 L 74.12,76.12 L 73.61,75.61 L 72.94,74.49 L 72.79,74.15 L 72.56,73.26 L 72.46,72.77 L 72.30,71.47 L 72.23,70.75 L 72.14,68.88 L 72.10,67.87 L 72.05,65.29 L 72.03,63.91 L 72.01,60.48 L 72.00,54.22 L 72.00,52.80 L 72.01,50.20 L 72.01,48.94 L 72.03,46.65 L 72.04,45.55 L 72.08,43.54 L 72.10,42.58 L 72.17,40.85 L 72.24,39.18 L 72.47,36.57 L 72.61,35.37 L 73.01,33.58 L 73.24,32.78 L 73.85,31.67 L 74.19,31.18 L 75.06,30.59 L 75.53,30.34 L 76.70,30.11 L 78.83,30.00 L 79.86,30.00 L 82.11,30.45 L 82.64,30.59 L 83.61,30.94 L 84.75,31.54 L 85.25,31.89 L 86.01,32.32 L 86.37,32.49 L 87.02,32.56 L 87.35,32.54 L 88.11,32.24 L 89.59,31.35 L 90.03,31.06 L 91.10,30.59 L 91.66,30.38 L 92.91,30.06 L 94.19,29.77 L 97.03,29.64 M 155.49,30.17 L 155.99,30.27 L 156.83,30.57 L 157.80,31.20 L 157.89,31.29 L 158.05,31.91 L 158.13,32.29 L 158.28,33.43 L 158.35,34.06 L 158.47,35.65 L 158.53,36.50 L 158.64,38.46 L 158.74,40.50 L 158.89,45.36 L 158.95,47.88 L 159.01,53.22 L 159.03,55.90 L 159.00,61.12 L 158.98,63.65 L 158.86,68.13 L 158.82,69.17 L 158.73,71.02 L 158.68,71.89 L 158.57,73.34 L 158.51,74.01 L 158.37,74.98 L 158.13,75.83 L 157.94,76.12 L 157.33,76.61 L 157.00,76.84 L 156.15,77.20 L 155.25,77.52 L 153.05,77.75 L 151.93,77.79 L 149.72,77.44 L 147.04,76.24 L 146.45,75.75 L 145.59,75.15 L 145.18,74.91 L 144.40,74.78 L 143.99,74.77 L 142.91,75.10 L 140.56,76.11 L 139.43,76.63 L 137.24,77.31 L 136.16,77.59 L 134.02,77.81 L 132.95,77.87 L 130.80,77.64 L 129.72,77.46 L 127.50,76.78 L 126.54,76.44 L 124.69,75.55 L 123.79,75.08 L 122.07,73.95 L 121.24,73.35 L 119.67,72.00 L 118.91,71.30 L 117.51,69.75 L 116.84,68.95 L 115.64,67.23 L 115.06,66.35 L 114.07,64.48 L 113.60,63.52 L 112.84,61.53 L 111.98,58.43 L 111.76,57.34 L 111.55,55.17 L 111.49,54.10 L 111.59,51.98 L 111.68,50.93 L 112.06,48.87 L 112.29,47.85 L 112.93,45.89 L 113.63,43.95 L 115.71,40.43 L 116.84,38.74 L 119.63,35.87 L 121.10,34.53 L 124.41,32.47 L 125.26,32.02 L 127.03,31.29 L 127.92,30.96 L 129.75,30.51 L 130.67,30.32 L 132.53,30.15 L 133.47,30.10 L 135.35,30.25 L 136.29,30.36 L 138.16,30.84 L 140.92,31.96 L 141.88,32.45 L 143.16,33.05 L 143.73,33.30 L 144.50,33.42 L 144.85,33.42 L 145.45,33.05 L 146.54,31.96 L 146.79,31.68 L 147.52,31.20 L 147.92,30.98 L 148.88,30.62 L 149.87,30.29 L 152.19,30.00 L 153.35,29.92 M 240.54,44.99 L 239.74,45.25 L 238.34,46.02 L 237.68,46.44 L 236.57,47.46 L 236.06,48.00 L 235.27,49.23 L 234.92,49.87 L 234.46,51.24 L 234.27,51.94 L 234.15,53.39 L 234.14,54.12 L 234.38,55.61 L 234.55,56.34 L 235.17,57.79 L 236.53,59.86 L 237.05,60.47 L 238.12,61.47 L 238.66,61.93 L 239.78,62.62 L 240.34,62.93 L 241.49,63.32 L 242.06,63.47 L 243.23,63.55 L 243.81,63.56 L 244.99,63.33 L 245.58,63.18 L 246.76,62.65 L 247.35,62.34 L 248.52,61.51 L 249.10,61.05 L 250.25,59.91 L 251.09,59.01 L 252.14,57.09 L 252.56,56.11 L 252.87,54.13 L 252.93,53.14 L 252.58,51.23 L 252.33,50.30 L 251.40,48.61 L 250.88,47.81 L 249.48,46.47 L 248.72,45.86 L 246.93,45.01 L 246.00,44.67 L 243.91,44.45 M 133.85,44.03 L 131.85,44.76 L 128.92,46.92 L 127.92,47.93 L 126.64,50.25 L 126.13,51.44 L 125.84,53.91 L 125.82,55.15 L 126.52,57.50 L 126.76,58.07 L 127.42,59.14 L 128.70,60.59 L 129.17,61.04 L 130.26,61.74 L 130.82,62.06 L 132.03,62.51 L 133.26,62.91 L 135.85,62.98 L 137.13,62.90 L 139.51,62.05 L 140.07,61.78 L 141.07,61.07 L 141.55,60.68 L 142.35,59.75 L 143.13,58.70 L 144.00,56.44 L 144.33,55.30 L 144.33,52.99 L 144.21,51.84 L 143.34,49.67 L 141.08,46.78 L 140.03,45.84 L 137.95,44.69 L 136.92,44.23 L 134.87,44.02 Z" fill="rgba(70,106,205,1)"/>
<path d="M 379.73,77.96 L 378.23,77.71 L 375.31,76.88 L 373.88,76.41 L 371.13,75.18 L 369.78,74.52 L 367.22,72.92 L 365.98,72.07 L 363.66,70.13 L 362.53,69.12 L 360.49,66.88 L 359.50,65.72 L 357.76,63.21 L 356.93,61.92 L 355.54,59.17 L 353.87,54.80 L 353.35,53.08 L 352.64,49.67 L 352.34,47.98 L 352.09,44.66 L 352.01,43.01 L 352.20,39.80 L 352.35,38.21 L 352.98,35.13 L 353.34,33.61 L 354.40,30.69 L 354.98,29.25 L 356.47,26.52 L 357.26,25.18 L 359.16,22.65 L 362.48,19.12 L 363.41,18.27 L 365.16,16.80 L 366.02,16.09 L 367.70,14.90 L 369.38,13.77 L 372.82,12.26 L 373.70,11.93 L 375.59,11.43 L 376.55,11.21 L 378.64,10.89 L 379.72,10.75 L 382.08,10.59 L 386.00,10.50 L 387.26,10.50 L 389.51,10.55 L 390.59,10.59 L 392.54,10.73 L 394.42,10.90 L 397.54,11.55 L 399.03,11.95 L 401.71,13.15 L 405.75,15.71 L 406.72,16.42 L 408.01,18.02 L 408.55,18.84 L 408.97,20.62 L 409.07,21.52 L 408.61,23.43 L 406.93,26.37 L 406.30,27.17 L 404.96,28.19 L 404.26,28.61 L 402.62,28.87 L 401.73,28.91 L 399.55,28.42 L 398.96,28.25 L 397.63,27.78 L 395.41,26.86 L 394.08,26.27 L 391.39,25.46 L 390.05,25.11 L 387.40,24.78 L 386.08,24.68 L 383.52,24.81 L 382.26,24.93 L 379.85,25.51 L 378.67,25.85 L 376.47,26.86 L 375.40,27.42 L 373.47,28.83 L 372.55,29.59 L 370.95,31.40 L 368.98,34.54 L 368.54,35.45 L 367.91,37.06 L 367.63,37.86 L 367.30,39.45 L 367.16,40.27 L 367.07,42.11 L 367.18,45.43 L 367.24,46.46 L 367.49,48.35 L 367.63,49.26 L 368.05,50.94 L 368.51,52.57 L 369.99,55.31 L 370.84,56.60 L 373.18,58.79 L 373.83,59.31 L 375.30,60.29 L 377.79,61.66 L 378.90,62.21 L 380.70,62.98 L 381.56,63.31 L 383.12,63.69 L 383.90,63.83 L 385.58,63.89 L 388.61,63.70 L 390.13,63.54 L 392.93,62.95 L 393.56,62.79 L 394.58,62.45 L 395.57,61.94 L 395.79,61.76 L 396.15,61.13 L 396.32,60.78 L 396.58,59.89 L 396.81,58.94 L 396.97,56.66 L 397.00,55.51 L 396.72,53.38 L 396.62,52.90 L 396.34,52.08 L 395.80,51.20 L 395.64,51.04 L 394.89,50.73 L 394.46,50.59 L 393.31,50.35 L 389.00,50.00 L 387.46,50.00 L 384.69,49.65 L 384.08,49.54 L 383.11,49.27 L 382.20,48.80 L 382.01,48.61 L 381.69,48.01 L 381.55,47.68 L 381.33,46.86 L 381.13,46.01 L 381.04,44.00 L 381.04,42.99 L 381.33,41.14 L 381.42,40.71 L 381.69,39.99 L 382.20,39.20 L 382.31,39.09 L 382.78,38.89 L 383.06,38.80 L 383.83,38.63 L 384.67,38.46 L 387.06,38.22 L 388.34,38.12 L 391.33,37.99 L 392.88,37.95 L 396.13,37.93 L 397.76,37.94 L 400.92,38.04 L 402.45,38.10 L 405.15,38.30 L 406.42,38.42 L 408.31,38.73 L 408.72,38.82 L 409.32,39.01 L 409.85,39.32 L 409.95,39.44 L 410.14,39.96 L 410.23,40.26 L 410.39,41.09 L 410.55,42.00 L 410.78,44.55 L 410.88,45.93 L 411.02,49.15 L 411.07,50.81 L 411.10,54.33 L 411.10,56.09 L 411.02,59.54 L 410.97,61.22 L 410.80,64.23 L 410.69,65.65 L 410.41,67.85 L 410.34,68.33 L 410.16,69.08 L 409.87,69.83 L 409.62,70.24 L 408.86,71.06 L 408.44,71.47 L 407.38,72.30 L 406.26,73.12 L 403.34,74.66 L 401.80,75.40 L 398.34,76.63 L 392.97,77.94 L 392.08,78.08 L 390.38,78.33 L 389.55,78.45 L 388.11,78.64 L 387.43,78.73 L 386.40,78.83 L 385.50,78.87 L 385.36,78.86 L 384.74,78.77 L 384.37,78.71 L 383.39,78.56 L 382.35,78.40 M 437.81,77.62 L 436.39,77.24 L 433.78,76.19 L 432.52,75.62 L 430.23,74.25 L 429.12,73.53 L 427.15,71.89 L 426.21,71.04 L 424.56,69.16 L 423.78,68.20 L 422.46,66.13 L 421.84,65.07 L 420.86,62.86 L 420.41,61.73 L 419.75,59.41 L 419.47,58.25 L 419.16,55.86 L 419.05,54.67 L 419.08,52.27 L 419.14,51.07 L 419.53,48.70 L 419.76,47.52 L 420.49,45.22 L 420.91,44.08 L 422.00,41.89 L 422.59,40.81 L 424.04,38.77 L 424.81,37.77 L 426.63,35.93 L 427.58,35.04 L 429.76,33.45 L 433.46,31.37 L 434.95,30.67 L 437.99,29.75 L 439.51,29.36 L 442.56,29.04 L 444.08,28.95 L 447.07,29.21 L 448.55,29.41 L 451.42,30.23 L 452.84,30.70 L 455.53,32.06 L 456.84,32.80 L 459.29,34.68 L 460.47,35.68 L 462.61,38.05 L 465.40,42.14 L 465.81,42.86 L 466.48,44.51 L 466.80,45.36 L 467.29,47.20 L 467.74,49.07 L 468.06,53.14 L 468.13,55.18 L 467.69,59.17 L 467.53,60.14 L 467.06,61.98 L 466.14,64.51 L 465.56,65.78 L 464.04,68.12 L 463.22,69.25 L 461.29,71.27 L 460.28,72.24 L 458.02,73.92 L 456.85,74.71 L 454.33,76.00 L 453.04,76.60 L 450.34,77.47 L 448.98,77.85 L 446.19,78.27 L 444.78,78.41 L 441.97,78.34 L 440.57,78.23 M 450.60,60.60 L 451.20,60.00 L 452.16,58.71 L 452.60,58.06 L 453.23,56.70 L 453.50,56.01 L 453.81,54.62 L 453.92,53.93 L 453.91,52.54 L 453.86,51.86 L 453.53,50.53 L 453.33,49.87 L 452.68,48.63 L 452.32,48.03 L 451.36,46.92 L 449.57,45.45 L 448.52,44.76 L 446.32,44.05 L 445.22,43.79 L 443.02,43.84 L 441.94,43.96 L 439.90,44.66 L 438.91,45.09 L 437.16,46.33 L 436.34,47.01 L 435.03,48.66 L 434.44,49.53 L 433.71,51.48 L 433.44,52.48 L 433.44,54.61 L 434.43,57.87 L 434.89,58.75 L 435.95,60.23 L 436.50,60.92 L 437.72,62.03 L 438.35,62.54 L 439.70,63.27 L 440.38,63.59 L 441.82,63.93 L 442.55,64.05 L 444.03,64.00 L 444.77,63.93 L 446.27,63.48 L 447.01,63.20 L 448.48,62.35 L 449.20,61.87 Z" fill="rgba(240,166,20,1)"/>
</g>
</svg>